first trial
nRows=23
nColumns=38

# SIMM Motion File Header:
name Sujet_06_velo_60.mvnx
datacolumns 38
datarows 23
otherdata 1
range 7.8000 8.1670
endheader
time pelvis_tilt  pelvis_list  pelvis_rotation  pelvis_tx  pelvis_ty  pelvis_tz  hip_flexion_r  hip_adduction_r  hip_rotation_r  knee_angle_r  ankle_angle_r  subtalar_angle_r  mtp_angle_r  hip_flexion_l  hip_adduction_l  hip_rotation_l  knee_angle_l  ankle_angle_l  subtalar_angle_l  mtp_angle_l  lumbar_extension  lumbar_bending  lumbar_rotation  arm_flex_r  arm_add_r  arm_rot_r  elbow_flex_r  pro_sup_r  wrist_flex_r  wrist_dev_r  arm_flex_l  arm_add_l  arm_rot_l  elbow_flex_l  pro_sup_l  wrist_flex_l  wrist_dev_l
7.8000	-7.9146	2.7191	-9.4016	0.0000	1.2500	-0.0000	46.8008	-0.0443	-3.1386	76.5926	-1.5192	-5.8846	0.0000	73.6991	-4.2168	0.9947	77.7058	-0.3082	-1.3837	-0.0000	-15.3357	-1.4373	-1.8242	91.9723	8.6492	15.1761	3.0957	117.5104	-19.6814	-11.5824	87.2864	-6.9652	31.0701	11.0016	120.7209	-19.4408	-7.2405	
7.8170	-7.9504	2.6551	-9.6965	0.0000	1.2500	-0.0000	48.3714	0.3115	-2.6811	80.3374	-0.7759	-6.1732	0.0000	71.4860	-4.0693	0.2234	74.1690	-0.4267	-1.2389	-0.0000	-15.2949	-1.4058	-1.7317	91.8671	8.7222	15.2434	3.0922	117.5775	-19.6290	-11.5412	87.3033	-7.0271	31.4032	10.8123	120.2052	-19.4965	-7.2830	
7.8330	-7.9965	2.5786	-10.0045	0.0000	1.2500	-0.0000	50.0271	0.7269	-2.2625	84.0403	-0.0674	-6.4466	-0.0000	69.0916	-3.9113	-0.5957	70.5223	-0.6091	-1.0895	-0.0000	-15.2465	-1.3698	-1.6283	91.7248	8.7916	15.3280	3.0985	117.6504	-19.5694	-11.4944	87.3511	-7.1131	31.8974	10.5653	119.5038	-19.5760	-7.3355	
7.8500	-8.0337	2.4918	-10.3064	0.0000	1.2500	-0.0000	51.7671	1.1814	-1.8769	87.6202	0.5252	-6.6896	-0.0000	66.5871	-3.7638	-1.4500	66.8641	-0.8970	-0.9499	0.0000	-15.2020	-1.3276	-1.5224	91.5720	8.8531	15.4542	3.1154	117.7147	-19.5214	-11.4552	87.3763	-7.1923	32.3661	10.3464	118.8150	-19.6535	-7.3897	
7.8670	-8.0540	2.3902	-10.5911	0.0000	1.2500	-0.0000	53.5932	1.6594	-1.5057	91.0814	1.0000	-6.8776	-0.0000	63.9683	-3.6160	-2.3597	63.1944	-1.3219	-0.8418	-0.0000	-15.1651	-1.2719	-1.4164	91.4016	8.8985	15.6606	3.1461	117.7543	-19.4951	-11.4348	87.3552	-7.2500	32.7696	10.1785	118.1770	-19.7141	-7.4425	
7.8830	-8.0651	2.2784	-10.8694	0.0000	1.2500	-0.0000	55.5041	2.1749	-1.1739	94.4175	1.3597	-7.0326	-0.0000	61.2391	-3.4690	-3.3073	59.5049	-1.8523	-0.7422	0.0000	-15.1323	-1.2100	-1.3079	91.2208	8.9357	15.9085	3.1875	117.7854	-19.4805	-11.4220	87.3112	-7.3011	33.1475	10.0373	117.5511	-19.7727	-7.4970	
7.9000	-8.0725	2.1718	-11.1543	0.0000	1.2500	-0.0000	57.4939	2.7495	-0.9405	97.5330	1.5299	-7.2076	0.0000	58.4799	-3.3703	-4.2275	55.8802	-2.4352	-0.5978	0.0000	-15.1043	-1.1624	-1.1967	91.0786	8.9857	16.1062	3.2320	117.8420	-19.4665	-11.3955	87.2604	-7.3588	33.4318	9.9331	117.0180	-19.8481	-7.5542	
7.9170	-8.0744	2.0783	-11.4555	0.0000	1.2500	-0.0000	59.6017	3.3883	-0.8729	100.4330	1.3576	-7.4437	-0.0000	55.6577	-3.3453	-5.1505	52.2792	-3.0140	-0.4082	-0.0000	-15.0811	-1.1372	-1.0815	90.9968	9.0565	16.2180	3.2851	117.9464	-19.4568	-11.3485	87.2105	-7.4336	33.5520	9.8840	116.6443	-19.9602	-7.6195	
7.9330	-8.0725	1.9902	-11.7631	0.0000	1.2500	-0.0000	61.7908	4.0758	-0.9147	103.1168	0.9973	-7.6936	0.0000	52.8008	-3.3659	-6.0576	48.7426	-3.6463	-0.1730	0.0000	-15.0623	-1.1264	-0.9636	90.9534	9.1407	16.2795	3.3414	118.0763	-19.4476	-11.2879	87.1531	-7.5147	33.5784	9.8695	116.3629	-20.0893	-7.6876	
7.9500	-8.0769	1.8980	-12.0609	0.0000	1.2500	-0.0000	63.9405	4.8062	-0.9372	105.4794	0.8361	-7.8801	0.0000	50.0795	-3.4191	-6.8106	45.4833	-4.4517	0.1620	0.0000	-15.0478	-1.1264	-0.8469	90.9314	9.2367	16.3060	3.3762	118.1991	-19.4169	-11.2130	87.0793	-7.5828	33.6539	9.8416	116.0543	-20.1952	-7.7443	
7.9670	-8.0944	1.7940	-12.3426	0.0000	1.2500	-0.0000	66.0306	5.5931	-0.8672	107.4940	1.0267	-7.9398	0.0000	47.5010	-3.5387	-7.3300	42.4895	-5.5522	0.6601	-0.0000	-15.0345	-1.1360	-0.7350	90.9245	9.3541	16.2964	3.3704	118.2959	-19.3522	-11.1198	86.9764	-7.6265	33.8526	9.7796	115.6583	-20.2582	-7.7841	
7.9830	-8.1182	1.6858	-12.6145	0.0000	1.2500	-0.0000	68.0816	6.4267	-0.7797	109.1851	1.4171	-7.9478	-0.0000	45.0531	-3.7224	-7.7013	39.7802	-6.8306	1.2598	-0.0000	-15.0251	-1.1565	-0.6242	90.9392	9.4834	16.2518	3.3433	118.3857	-19.2663	-11.0127	86.8574	-7.6574	34.1004	9.7024	115.2343	-20.2980	-7.8124	
8.0000	-8.1378	1.5876	-12.8788	0.0000	1.2500	-0.0000	70.0344	7.2682	-0.7598	110.5242	1.9372	-8.0347	-0.0000	42.8784	-3.9131	-8.0265	37.6142	-8.0485	1.8320	0.0000	-15.0283	-1.1878	-0.5072	90.9785	9.5946	16.1906	3.3281	118.4926	-19.1754	-10.9043	86.7526	-7.6904	34.3177	9.6226	114.8435	-20.3339	-7.8313	
8.0170	-8.1562	1.5107	-13.1430	0.0000	1.2500	-0.0000	71.8890	8.1187	-0.8447	111.4991	2.6190	-8.2676	-0.0000	41.0152	-4.0983	-8.3003	36.0553	-9.1860	2.3605	0.0000	-15.0453	-1.2369	-0.3775	91.0500	9.6701	16.1181	3.3442	118.6368	-19.0903	-10.8070	86.6662	-7.7307	34.4470	9.5521	114.5386	-20.3730	-7.8381	
8.0330	-8.1707	1.4436	-13.3997	0.0000	1.2500	-0.0000	73.6476	8.9711	-0.9916	112.1239	3.4281	-8.5737	0.0000	39.4249	-4.3019	-8.5214	35.0383	-10.2658	2.8702	-0.0000	-15.0747	-1.2971	-0.2416	91.1462	9.7274	16.0292	3.3721	118.7982	-19.0004	-10.7086	86.5941	-7.7730	34.5461	9.4800	114.2674	-20.4082	-7.8353	
8.0500	-8.1636	1.3679	-13.6281	0.0000	1.2500	-0.0000	75.2536	9.7711	-1.1581	112.4104	4.1952	-8.8689	-0.0000	38.1353	-4.5130	-8.7901	34.6278	-11.1077	3.2897	0.0000	-15.1208	-1.3482	-0.1108	91.2479	9.7892	15.9266	3.3866	118.9402	-18.8896	-10.5849	86.5536	-7.8163	34.7082	9.3858	113.9339	-20.4372	-7.8331	
8.0670	-8.1237	1.2679	-13.8185	0.0000	1.2500	-0.0000	76.7102	10.5110	-1.3242	112.3618	4.8885	-9.1520	-0.0000	37.1695	-4.7310	-9.1862	34.8935	-11.5866	3.5642	0.0000	-15.1921	-1.3807	0.0109	91.3452	9.8741	15.8182	3.3717	119.0253	-18.7424	-10.4156	86.5623	-7.8806	35.0343	9.2655	113.4348	-20.4641	-7.8371	
8.0830	-8.0624	1.1593	-13.9806	0.0000	1.2500	-0.0000	78.0137	11.1975	-1.4963	111.9749	5.5411	-9.4207	0.0000	36.5048	-4.9623	-9.6235	35.7665	-11.8207	3.7403	0.0000	-15.2803	-1.4042	0.1276	91.4481	9.9634	15.6959	3.3436	119.0910	-18.5751	-10.2214	86.6026	-7.9461	35.4234	9.1211	112.8725	-20.4848	-7.8416	
8.1000	-7.9953	1.0694	-14.1238	0.0000	1.2500	-0.0000	79.0951	11.8008	-1.6648	111.2511	6.0835	-9.5998	0.0000	36.1015	-5.2051	-9.9528	37.1038	-11.9912	3.8875	0.0000	-15.3654	-1.4266	0.2403	91.5662	10.0242	15.5382	3.3255	119.2135	-18.4186	-10.0389	86.6384	-7.9522	35.6659	8.9419	112.4600	-20.4849	-7.8397	
8.1170	-7.9196	1.0089	-14.2541	0.0000	1.2500	-0.0000	79.9495	12.3243	-1.8169	110.1774	6.4692	-9.6518	0.0000	35.9773	-5.4617	-10.1152	38.9325	-12.1595	4.0185	0.0000	-15.4437	-1.4485	0.3517	91.7186	10.0316	15.3016	3.3310	119.4611	-18.2797	-9.8756	86.6508	-7.8473	35.5948	8.7092	112.3610	-20.4483	-7.8236	
8.1330	-7.8385	0.9670	-14.3654	0.0000	1.2500	-0.0000	80.5779	12.7685	-1.9514	108.7665	6.7451	-9.6261	0.0000	36.1152	-5.7356	-10.1638	41.2225	-12.2584	4.1043	-0.0000	-15.5190	-1.4690	0.4591	91.8861	10.0101	15.0299	3.3462	119.7654	-18.1513	-9.7240	86.6598	-7.6831	35.3769	8.4439	112.4121	-20.3911	-7.8008	
8.1500	-7.7762	0.9379	-14.4500	0.0000	1.2500	-0.0000	80.9187	13.1005	-2.0735	107.0576	6.9819	-9.5764	0.0000	36.4244	-6.0259	-10.1190	43.7456	-12.2792	4.1575	0.0000	-15.5819	-1.4938	0.5544	92.0210	10.0021	14.8328	3.3522	119.9976	-18.0430	-9.5975	86.6868	-7.5527	35.3036	8.1948	112.3355	-20.3473	-7.7870	
8.1670	-7.7457	0.9214	-14.5055	0.0000	1.2500	-0.0000	80.9412	13.3046	-2.1722	105.0353	7.2153	-9.5087	0.0000	36.8803	-6.3313	-9.9722	46.4433	-12.2266	4.1924	-0.0000	-15.6289	-1.5246	0.6356	92.0990	10.0261	14.7856	3.3418	120.0829	-17.9589	-9.5013	86.7335	-7.4963	35.5441	7.9685	111.9628	-20.3319	-7.7917	
